<svg width="100" height="100" viewBox="0 0 100 100" fill="none" xmlns="http://www.w3.org/2000/svg">
<g clip-path="url(#clip0_236_3)">
<path d="M50.0001 100C77.6144 100 100 77.6144 100 50.0001C100 22.3858 77.6144 0 50.0001 0C22.3858 0 0 22.3858 0 50.0001C0 77.6144 22.3858 100 50.0001 100Z" fill="#4A86C5"/>
<path d="M85.3538 14.6399C104.88 34.1678 104.882 65.8267 85.3538 85.3544C65.8275 104.881 34.1664 104.881 14.6401 85.3544L85.3538 14.6399Z" fill="#3D80B2"/>
<path d="M97.6188 65.2574C97.802 64.6849 97.9687 64.1061 98.132 63.5259C97.9693 64.107 97.7982 64.6849 97.6188 65.2574Z" fill="#4A86C5"/>
<path d="M98.1368 63.5149L98.1329 63.5261L98.1368 63.5149Z" fill="#377CA5"/>
<path d="M98.136 63.5149L71.0485 36.4274L64.8865 42.5895L60.6025 38.3055L57.0269 41.8811L36.088 20.9418L34.7892 20.4468L26.7543 28.4817L36.4536 38.1802L26.959 47.6742L36.231 56.9462L26.0928 67.0852L58.3366 99.295C76.9013 96.1764 91.9912 82.8383 97.6197 65.2582C97.7988 64.6851 97.9695 64.1078 98.1329 63.5267C98.1329 63.5229 98.1345 63.518 98.136 63.5149Z" fill="#377CA5"/>
<path d="M75.6576 48.6272V67.1706H64.9084V49.8691C64.9084 45.5235 63.3522 42.5566 59.4622 42.5566C56.4905 42.5566 54.7236 44.5557 53.9452 46.4884C53.6618 47.1801 53.589 48.1416 53.589 49.1097V67.1699H42.8374C42.8374 67.1699 42.9811 37.8672 42.8374 34.8321H53.5884V39.4151C53.5685 39.449 53.5386 39.4868 53.519 39.5201H53.5884V39.4151C55.0166 37.2154 57.5683 34.0717 63.2782 34.0717C70.3545 34.0723 75.6576 38.6943 75.6576 48.6272ZM31.5869 19.2429C27.9093 19.2429 25.502 21.6566 25.502 24.8288C25.502 27.9338 27.8382 30.4192 31.4447 30.4192H31.5172C35.2659 30.4192 37.5989 27.9338 37.5989 24.8288C37.528 21.6564 35.2661 19.2429 31.5869 19.2429ZM26.1401 67.1704H36.8893V34.8327H26.1401V67.1704Z" fill="white"/>
</g>
<defs>
<clipPath id="clip0_236_3">
<rect width="100" height="100" fill="white"/>
</clipPath>
</defs>
</svg>
