<svg width="12" height="13" viewBox="0 0 12 13" fill="none" xmlns="http://www.w3.org/2000/svg">
<path d="M6.736 12.192C5.85067 12.192 5.03467 12.0533 4.288 11.776C3.552 11.488 2.90667 11.0827 2.352 10.56C1.808 10.0373 1.38133 9.424 1.072 8.72C0.773333 8.016 0.624 7.24267 0.624 6.4C0.624 5.55733 0.773333 4.784 1.072 4.08C1.38133 3.376 1.81333 2.76267 2.368 2.24C2.92267 1.71733 3.57333 1.31733 4.32 1.04C5.06667 0.752 5.888 0.608 6.784 0.608C7.776 0.608 8.66667 0.773333 9.456 1.104C10.256 1.43467 10.928 1.91467 11.472 2.544L9.808 4.08C9.40267 3.65333 8.96 3.33867 8.48 3.136C8 2.92267 7.47733 2.816 6.912 2.816C6.368 2.816 5.872 2.90133 5.424 3.072C4.976 3.24267 4.58667 3.488 4.256 3.808C3.936 4.128 3.68533 4.50667 3.504 4.944C3.33333 5.38133 3.248 5.86667 3.248 6.4C3.248 6.92267 3.33333 7.40267 3.504 7.84C3.68533 8.27733 3.936 8.66133 4.256 8.992C4.58667 9.312 4.97067 9.55733 5.408 9.728C5.856 9.89867 6.34667 9.984 6.88 9.984C7.392 9.984 7.888 9.904 8.368 9.744C8.85867 9.57333 9.33333 9.29067 9.792 8.896L11.264 10.768C10.656 11.2267 9.94667 11.5787 9.136 11.824C8.336 12.0693 7.536 12.192 6.736 12.192ZM8.896 10.432V6.224H11.264V10.768L8.896 10.432Z" fill="#5CF447"/>
</svg>
